<mxfile host="app.diagrams.net" agent="Mozilla/5.0 (Windows NT 10.0; Win64; x64) AppleWebKit/537.36 (KHTML, like Gecko) Chrome/135.0.0.0 Safari/537.36" version="26.2.12">
  <diagram name="Page-1" id="LbLjgvdDcqQ1I_yBgH5B">
    <mxGraphModel dx="1313" dy="2007" grid="1" gridSize="10" guides="1" tooltips="1" connect="1" arrows="1" fold="1" page="1" pageScale="1" pageWidth="827" pageHeight="1169" math="0" shadow="0">
      <root>
        <mxCell id="0" />
        <mxCell id="1" parent="0" />
        <mxCell id="g-5_mK_-a3eJAs1n7ar0-1" value="Actor" style="shape=umlActor;verticalLabelPosition=bottom;verticalAlign=top;html=1;outlineConnect=0;" parent="1" vertex="1">
          <mxGeometry x="190" y="440" width="30" height="60" as="geometry" />
        </mxCell>
        <mxCell id="g-5_mK_-a3eJAs1n7ar0-2" value="Main" style="shape=umlBoundary;whiteSpace=wrap;html=1;" parent="1" vertex="1">
          <mxGeometry x="340" y="240" width="100" height="80" as="geometry" />
        </mxCell>
        <mxCell id="22" style="edgeStyle=none;html=1;startArrow=classic;startFill=1;" parent="1" source="g-5_mK_-a3eJAs1n7ar0-3" target="17" edge="1">
          <mxGeometry relative="1" as="geometry" />
        </mxCell>
        <mxCell id="g-5_mK_-a3eJAs1n7ar0-3" value="Pioche" style="shape=umlBoundary;whiteSpace=wrap;html=1;" parent="1" vertex="1">
          <mxGeometry x="340" y="370" width="100" height="80" as="geometry" />
        </mxCell>
        <mxCell id="8" style="edgeStyle=orthogonalEdgeStyle;html=1;startArrow=classic;startFill=1;" parent="1" source="2" target="5" edge="1">
          <mxGeometry relative="1" as="geometry" />
        </mxCell>
        <mxCell id="2" value="Zone Attaque" style="shape=umlBoundary;whiteSpace=wrap;html=1;" parent="1" vertex="1">
          <mxGeometry x="340" y="525" width="100" height="80" as="geometry" />
        </mxCell>
        <mxCell id="6" style="edgeStyle=orthogonalEdgeStyle;html=1;startArrow=classic;startFill=1;" parent="1" source="3" target="5" edge="1">
          <mxGeometry relative="1" as="geometry" />
        </mxCell>
        <mxCell id="3" value="Zone Pop" style="shape=umlBoundary;whiteSpace=wrap;html=1;" parent="1" vertex="1">
          <mxGeometry x="340" y="650" width="100" height="80" as="geometry" />
        </mxCell>
        <mxCell id="7" style="edgeStyle=orthogonalEdgeStyle;html=1;startArrow=classic;startFill=1;" parent="1" source="4" target="5" edge="1">
          <mxGeometry relative="1" as="geometry" />
        </mxCell>
        <mxCell id="4" value="Défausse" style="shape=umlBoundary;whiteSpace=wrap;html=1;" parent="1" vertex="1">
          <mxGeometry x="340" y="780" width="100" height="80" as="geometry" />
        </mxCell>
        <mxCell id="20" style="edgeStyle=orthogonalEdgeStyle;html=1;startArrow=classic;startFill=1;" parent="1" source="5" target="9" edge="1">
          <mxGeometry relative="1" as="geometry">
            <Array as="points">
              <mxPoint x="755" y="620" />
            </Array>
          </mxGeometry>
        </mxCell>
        <mxCell id="28" style="edgeStyle=orthogonalEdgeStyle;html=1;" parent="1" source="5" target="13" edge="1">
          <mxGeometry relative="1" as="geometry">
            <Array as="points">
              <mxPoint x="870" y="630" />
            </Array>
          </mxGeometry>
        </mxCell>
        <mxCell id="IeC0dPRTYMZKNZ-4Bb9S-38" style="edgeStyle=orthogonalEdgeStyle;rounded=1;orthogonalLoop=1;jettySize=auto;html=1;entryX=0;entryY=0.5;entryDx=0;entryDy=0;curved=0;" parent="1" source="5" target="IeC0dPRTYMZKNZ-4Bb9S-37" edge="1">
          <mxGeometry relative="1" as="geometry">
            <Array as="points">
              <mxPoint x="790" y="640" />
              <mxPoint x="790" y="660" />
            </Array>
          </mxGeometry>
        </mxCell>
        <mxCell id="-QWvVH0vdjCU2LeUxjQd-32" style="edgeStyle=orthogonalEdgeStyle;rounded=1;orthogonalLoop=1;jettySize=auto;html=1;entryX=0;entryY=0.5;entryDx=0;entryDy=0;curved=0;" edge="1" parent="1" source="5" target="-QWvVH0vdjCU2LeUxjQd-31">
          <mxGeometry relative="1" as="geometry" />
        </mxCell>
        <mxCell id="5" value="Control Carte Plateau" style="ellipse;shape=umlControl;whiteSpace=wrap;html=1;" parent="1" vertex="1">
          <mxGeometry x="570" y="650" width="70" height="80" as="geometry" />
        </mxCell>
        <mxCell id="-QWvVH0vdjCU2LeUxjQd-30" style="edgeStyle=orthogonalEdgeStyle;rounded=1;orthogonalLoop=1;jettySize=auto;html=1;entryX=0;entryY=0.5;entryDx=0;entryDy=0;curved=0;" edge="1" parent="1" source="9" target="10">
          <mxGeometry relative="1" as="geometry" />
        </mxCell>
        <mxCell id="9" value="Control Joueur" style="ellipse;shape=umlControl;whiteSpace=wrap;html=1;" parent="1" vertex="1">
          <mxGeometry x="550" y="260" width="70" height="80" as="geometry" />
        </mxCell>
        <mxCell id="10" value="Joueur" style="ellipse;shape=umlEntity;whiteSpace=wrap;html=1;" parent="1" vertex="1">
          <mxGeometry x="900" y="460" width="80" height="80" as="geometry" />
        </mxCell>
        <mxCell id="13" value="Carte" style="ellipse;shape=umlEntity;whiteSpace=wrap;html=1;" parent="1" vertex="1">
          <mxGeometry x="830" y="240" width="80" height="80" as="geometry" />
        </mxCell>
        <mxCell id="18" style="edgeStyle=orthogonalEdgeStyle;html=1;entryX=0.5;entryY=1;entryDx=0;entryDy=0;" parent="1" source="17" target="13" edge="1">
          <mxGeometry relative="1" as="geometry" />
        </mxCell>
        <mxCell id="IeC0dPRTYMZKNZ-4Bb9S-48" style="edgeStyle=orthogonalEdgeStyle;rounded=1;orthogonalLoop=1;jettySize=auto;html=1;curved=0;" parent="1" source="17" target="IeC0dPRTYMZKNZ-4Bb9S-47" edge="1">
          <mxGeometry relative="1" as="geometry" />
        </mxCell>
        <mxCell id="17" value="Control Pioche" style="ellipse;shape=umlControl;whiteSpace=wrap;html=1;" parent="1" vertex="1">
          <mxGeometry x="670" y="370" width="70" height="80" as="geometry" />
        </mxCell>
        <mxCell id="IeC0dPRTYMZKNZ-4Bb9S-28" value="Zone Carte Spéciale" style="shape=umlBoundary;whiteSpace=wrap;html=1;" parent="1" vertex="1">
          <mxGeometry x="340" y="900" width="100" height="80" as="geometry" />
        </mxCell>
        <mxCell id="IeC0dPRTYMZKNZ-4Bb9S-31" style="edgeStyle=orthogonalEdgeStyle;rounded=0;orthogonalLoop=1;jettySize=auto;html=1;" parent="1" source="IeC0dPRTYMZKNZ-4Bb9S-29" target="IeC0dPRTYMZKNZ-4Bb9S-30" edge="1">
          <mxGeometry relative="1" as="geometry" />
        </mxCell>
        <mxCell id="IeC0dPRTYMZKNZ-4Bb9S-29" value="Control Carte Spéciale" style="ellipse;shape=umlControl;whiteSpace=wrap;html=1;" parent="1" vertex="1">
          <mxGeometry x="620" y="890" width="70" height="80" as="geometry" />
        </mxCell>
        <mxCell id="IeC0dPRTYMZKNZ-4Bb9S-30" value="Carte sp&lt;span style=&quot;background-color: transparent; color: light-dark(rgb(0, 0, 0), rgb(255, 255, 255));&quot;&gt;éciale&lt;/span&gt;" style="ellipse;shape=umlEntity;whiteSpace=wrap;html=1;" parent="1" vertex="1">
          <mxGeometry x="877" y="890" width="80" height="80" as="geometry" />
        </mxCell>
        <mxCell id="IeC0dPRTYMZKNZ-4Bb9S-32" style="edgeStyle=orthogonalEdgeStyle;rounded=1;orthogonalLoop=1;jettySize=auto;html=1;entryX=0.714;entryY=1.013;entryDx=0;entryDy=0;entryPerimeter=0;startArrow=classic;startFill=1;curved=0;" parent="1" source="IeC0dPRTYMZKNZ-4Bb9S-29" target="5" edge="1">
          <mxGeometry relative="1" as="geometry" />
        </mxCell>
        <mxCell id="IeC0dPRTYMZKNZ-4Bb9S-34" style="edgeStyle=orthogonalEdgeStyle;rounded=0;orthogonalLoop=1;jettySize=auto;html=1;entryX=-0.014;entryY=0.625;entryDx=0;entryDy=0;entryPerimeter=0;" parent="1" source="IeC0dPRTYMZKNZ-4Bb9S-28" target="IeC0dPRTYMZKNZ-4Bb9S-29" edge="1">
          <mxGeometry relative="1" as="geometry" />
        </mxCell>
        <mxCell id="IeC0dPRTYMZKNZ-4Bb9S-37" value="CartePassive" style="ellipse;shape=umlEntity;whiteSpace=wrap;html=1;" parent="1" vertex="1">
          <mxGeometry x="910" y="620" width="80" height="80" as="geometry" />
        </mxCell>
        <mxCell id="IeC0dPRTYMZKNZ-4Bb9S-39" style="edgeStyle=orthogonalEdgeStyle;rounded=1;orthogonalLoop=1;jettySize=auto;html=1;entryX=0.643;entryY=1.028;entryDx=0;entryDy=0;entryPerimeter=0;startArrow=classic;startFill=1;curved=0;" parent="1" source="17" target="9" edge="1">
          <mxGeometry relative="1" as="geometry">
            <mxPoint x="635.7099999999998" y="320.64" as="targetPoint" />
          </mxGeometry>
        </mxCell>
        <mxCell id="IeC0dPRTYMZKNZ-4Bb9S-42" style="edgeStyle=orthogonalEdgeStyle;rounded=0;orthogonalLoop=1;jettySize=auto;html=1;startArrow=classic;startFill=1;" parent="1" source="IeC0dPRTYMZKNZ-4Bb9S-40" target="IeC0dPRTYMZKNZ-4Bb9S-41" edge="1">
          <mxGeometry relative="1" as="geometry" />
        </mxCell>
        <mxCell id="IeC0dPRTYMZKNZ-4Bb9S-40" value="Marché" style="shape=umlBoundary;whiteSpace=wrap;html=1;" parent="1" vertex="1">
          <mxGeometry x="340" y="90" width="100" height="80" as="geometry" />
        </mxCell>
        <mxCell id="IeC0dPRTYMZKNZ-4Bb9S-44" style="edgeStyle=orthogonalEdgeStyle;rounded=1;orthogonalLoop=1;jettySize=auto;html=1;entryX=0.5;entryY=0;entryDx=0;entryDy=0;curved=0;" parent="1" source="IeC0dPRTYMZKNZ-4Bb9S-41" target="13" edge="1">
          <mxGeometry relative="1" as="geometry" />
        </mxCell>
        <mxCell id="IeC0dPRTYMZKNZ-4Bb9S-46" style="edgeStyle=orthogonalEdgeStyle;rounded=1;orthogonalLoop=1;jettySize=auto;html=1;entryX=0;entryY=0.5;entryDx=0;entryDy=0;curved=0;" parent="1" source="IeC0dPRTYMZKNZ-4Bb9S-41" target="IeC0dPRTYMZKNZ-4Bb9S-45" edge="1">
          <mxGeometry relative="1" as="geometry" />
        </mxCell>
        <mxCell id="IeC0dPRTYMZKNZ-4Bb9S-41" value="Control Marché" style="ellipse;shape=umlControl;whiteSpace=wrap;html=1;" parent="1" vertex="1">
          <mxGeometry x="600" y="90" width="70" height="80" as="geometry" />
        </mxCell>
        <mxCell id="IeC0dPRTYMZKNZ-4Bb9S-43" style="edgeStyle=orthogonalEdgeStyle;rounded=0;orthogonalLoop=1;jettySize=auto;html=1;entryX=0.5;entryY=0.08;entryDx=0;entryDy=0;entryPerimeter=0;startArrow=classic;startFill=1;" parent="1" source="IeC0dPRTYMZKNZ-4Bb9S-41" target="9" edge="1">
          <mxGeometry relative="1" as="geometry">
            <mxPoint x="625" y="244.32000000000005" as="targetPoint" />
          </mxGeometry>
        </mxCell>
        <mxCell id="IeC0dPRTYMZKNZ-4Bb9S-45" value="Marché" style="ellipse;shape=umlEntity;whiteSpace=wrap;html=1;" parent="1" vertex="1">
          <mxGeometry x="940" y="60" width="80" height="80" as="geometry" />
        </mxCell>
        <mxCell id="IeC0dPRTYMZKNZ-4Bb9S-47" value="Pioche" style="ellipse;shape=umlEntity;whiteSpace=wrap;html=1;" parent="1" vertex="1">
          <mxGeometry x="920" y="330" width="80" height="80" as="geometry" />
        </mxCell>
        <mxCell id="IeC0dPRTYMZKNZ-4Bb9S-49" value="txt" style="shape=umlBoundary;whiteSpace=wrap;html=1;" parent="1" vertex="1">
          <mxGeometry x="1320" y="80" width="100" height="80" as="geometry" />
        </mxCell>
        <mxCell id="IeC0dPRTYMZKNZ-4Bb9S-53" style="edgeStyle=orthogonalEdgeStyle;rounded=1;orthogonalLoop=1;jettySize=auto;html=1;entryX=0.5;entryY=1;entryDx=0;entryDy=0;curved=0;" parent="1" source="IeC0dPRTYMZKNZ-4Bb9S-50" target="IeC0dPRTYMZKNZ-4Bb9S-51" edge="1">
          <mxGeometry relative="1" as="geometry">
            <Array as="points">
              <mxPoint x="990" y="270" />
            </Array>
          </mxGeometry>
        </mxCell>
        <mxCell id="IeC0dPRTYMZKNZ-4Bb9S-54" style="edgeStyle=orthogonalEdgeStyle;rounded=1;orthogonalLoop=1;jettySize=auto;html=1;entryX=1;entryY=0.5;entryDx=0;entryDy=0;curved=0;" parent="1" source="IeC0dPRTYMZKNZ-4Bb9S-50" target="13" edge="1">
          <mxGeometry relative="1" as="geometry">
            <Array as="points">
              <mxPoint x="1041" y="310" />
              <mxPoint x="1041" y="280" />
            </Array>
          </mxGeometry>
        </mxCell>
        <mxCell id="IeC0dPRTYMZKNZ-4Bb9S-50" value="ParserCarte" style="ellipse;shape=umlControl;whiteSpace=wrap;html=1;" parent="1" vertex="1">
          <mxGeometry x="1171" y="280" width="70" height="80" as="geometry" />
        </mxCell>
        <mxCell id="IeC0dPRTYMZKNZ-4Bb9S-51" value="CarteProbabilité" style="ellipse;shape=umlEntity;whiteSpace=wrap;html=1;" parent="1" vertex="1">
          <mxGeometry x="950" y="170" width="80" height="80" as="geometry" />
        </mxCell>
        <mxCell id="IeC0dPRTYMZKNZ-4Bb9S-57" style="edgeStyle=orthogonalEdgeStyle;rounded=1;orthogonalLoop=1;jettySize=auto;html=1;entryX=1.014;entryY=0.663;entryDx=0;entryDy=0;entryPerimeter=0;curved=0;" parent="1" source="IeC0dPRTYMZKNZ-4Bb9S-49" target="IeC0dPRTYMZKNZ-4Bb9S-50" edge="1">
          <mxGeometry relative="1" as="geometry" />
        </mxCell>
        <mxCell id="-QWvVH0vdjCU2LeUxjQd-28" style="edgeStyle=orthogonalEdgeStyle;rounded=1;orthogonalLoop=1;jettySize=auto;html=1;entryX=0;entryY=0.57;entryDx=0;entryDy=0;entryPerimeter=0;curved=0;" edge="1" parent="1" source="g-5_mK_-a3eJAs1n7ar0-2" target="9">
          <mxGeometry relative="1" as="geometry" />
        </mxCell>
        <mxCell id="-QWvVH0vdjCU2LeUxjQd-29" style="edgeStyle=orthogonalEdgeStyle;rounded=1;orthogonalLoop=1;jettySize=auto;html=1;entryX=0.369;entryY=0.955;entryDx=0;entryDy=0;entryPerimeter=0;startArrow=classic;startFill=1;curved=0;" edge="1" parent="1" source="5" target="9">
          <mxGeometry relative="1" as="geometry" />
        </mxCell>
        <mxCell id="-QWvVH0vdjCU2LeUxjQd-31" value="CarteActive" style="ellipse;shape=umlEntity;whiteSpace=wrap;html=1;" vertex="1" parent="1">
          <mxGeometry x="930" y="720" width="80" height="80" as="geometry" />
        </mxCell>
        <mxCell id="-QWvVH0vdjCU2LeUxjQd-33" value="Jeu" style="shape=umlBoundary;whiteSpace=wrap;html=1;" vertex="1" parent="1">
          <mxGeometry x="220" y="-110" width="100" height="80" as="geometry" />
        </mxCell>
        <mxCell id="-QWvVH0vdjCU2LeUxjQd-37" style="edgeStyle=orthogonalEdgeStyle;rounded=0;orthogonalLoop=1;jettySize=auto;html=1;entryX=0;entryY=0.5;entryDx=0;entryDy=0;" edge="1" parent="1" source="-QWvVH0vdjCU2LeUxjQd-34" target="-QWvVH0vdjCU2LeUxjQd-35">
          <mxGeometry relative="1" as="geometry" />
        </mxCell>
        <mxCell id="-QWvVH0vdjCU2LeUxjQd-34" value="Control&amp;nbsp;&lt;span style=&quot;background-color: transparent; color: light-dark(rgb(0, 0, 0), rgb(255, 255, 255));&quot;&gt;Jeu&lt;/span&gt;" style="ellipse;shape=umlControl;whiteSpace=wrap;html=1;" vertex="1" parent="1">
          <mxGeometry x="500" y="-100" width="70" height="80" as="geometry" />
        </mxCell>
        <mxCell id="-QWvVH0vdjCU2LeUxjQd-35" value="Jeu" style="ellipse;shape=umlEntity;whiteSpace=wrap;html=1;" vertex="1" parent="1">
          <mxGeometry x="740" y="-100" width="80" height="80" as="geometry" />
        </mxCell>
        <mxCell id="-QWvVH0vdjCU2LeUxjQd-36" style="edgeStyle=orthogonalEdgeStyle;rounded=1;orthogonalLoop=1;jettySize=auto;html=1;entryX=0.417;entryY=1.003;entryDx=0;entryDy=0;entryPerimeter=0;curved=0;" edge="1" parent="1" source="5" target="-QWvVH0vdjCU2LeUxjQd-34">
          <mxGeometry relative="1" as="geometry">
            <Array as="points">
              <mxPoint x="605" y="530" />
              <mxPoint x="529" y="530" />
            </Array>
          </mxGeometry>
        </mxCell>
        <mxCell id="-QWvVH0vdjCU2LeUxjQd-38" style="edgeStyle=orthogonalEdgeStyle;rounded=1;orthogonalLoop=1;jettySize=auto;html=1;entryX=0.068;entryY=0.614;entryDx=0;entryDy=0;entryPerimeter=0;curved=0;startArrow=classic;startFill=1;" edge="1" parent="1" source="-QWvVH0vdjCU2LeUxjQd-33" target="-QWvVH0vdjCU2LeUxjQd-34">
          <mxGeometry relative="1" as="geometry" />
        </mxCell>
      </root>
    </mxGraphModel>
  </diagram>
</mxfile>
